<?xml version="1.0" standalone="no"?>
<!DOCTYPE svg PUBLIC "-//W3C//DTD SVG 20010904//EN"
 "http://www.w3.org/TR/2001/REC-SVG-20010904/DTD/svg10.dtd">
<svg version="1.0" xmlns="http://www.w3.org/2000/svg"
 width="700.000000pt" height="700.000000pt" viewBox="0 0 700.000000 700.000000"
 preserveAspectRatio="xMidYMid meet">
<metadata>
Created by potrace 1.11, written by Peter Selinger 2001-2013
</metadata>
<g transform="translate(0.000000,700.000000) scale(0.100000,-0.100000)"
fill="#000000" stroke="none">
<path d="M2089 6996 c-2 -2 -26 -6 -54 -9 -304 -34 -635 -242 -812 -511 -140
-212 -193 -394 -199 -680 -3 -169 -2 -181 18 -218 23 -40 69 -75 106 -81 12
-2 24 -6 28 -9 5 -5 7 -294 4 -565 0 -38 -3 -43 -46 -68 -195 -114 -263 -384
-146 -585 99 -171 319 -256 506 -194 52 18 111 49 135 72 17 17 18 16 26 -38
16 -111 17 -118 34 -190 83 -360 382 -690 737 -814 l69 -24 3 -189 2 -188
-397 0 c-406 1 -496 -4 -593 -31 -349 -95 -609 -372 -685 -729 -16 -72 -17
-173 -19 -954 -2 -977 -5 -926 68 -969 l37 -22 1891 0 1891 0 34 21 c71 44 67
5 67 787 0 639 1 702 16 697 37 -12 210 -30 267 -29 230 6 423 66 614 190 99
65 235 200 301 299 76 116 143 263 162 360 3 11 10 43 16 70 15 62 21 273 10
340 -12 75 -17 96 -30 145 -7 25 -14 52 -15 60 -3 15 -22 61 -57 140 -61 137
-223 330 -358 426 -136 96 -295 163 -460 195 -152 28 -386 10 -548 -42 -212
-69 -429 -232 -562 -421 -88 -125 -168 -318 -184 -443 -14 -101 36 -90 -409
-89 -216 1 -397 2 -403 3 -7 1 -10 62 -10 186 l0 185 51 16 c27 10 79 31 115
48 378 177 631 532 675 946 4 36 9 67 11 69 2 3 14 -5 27 -16 58 -54 189 -93
287 -87 225 16 401 201 402 424 1 158 -68 289 -195 370 l-54 35 -1 505 0 505
43 55 c39 51 125 184 125 195 0 2 11 28 24 57 25 53 54 136 61 171 3 10 6 26
9 35 19 64 28 149 30 310 2 155 -7 200 -46 237 -50 46 -22 45 -1354 45 -693 0
-1263 -2 -1265 -4z"/>
</g>
</svg>
